<?xml version="1.0" encoding="utf-8"?>
<!-- Generator: Adobe Illustrator 23.0.4, SVG Export Plug-In . SVG Version: 6.00 Build 0)  -->
<svg version="1.1" id="Capa_1" xmlns="http://www.w3.org/2000/svg" xmlns:xlink="http://www.w3.org/1999/xlink" x="0px" y="0px"
	 viewBox="0 0 26.8 20.8" style="enable-background:new 0 0 26.8 20.8;" xml:space="preserve">
<style type="text/css">
	.st0{fill:#E31021;}
	.st1{fill:#F49D1E;}
	.st2{fill:#EA611C;}
	.st3{fill-rule:evenodd;clip-rule:evenodd;}
</style>
<path class="st0" d="M10.2,8.3c0-2.5,1.2-4.9,3.2-6.5C11.9,0.6,10.1,0,8.3,0C3.7,0,0,3.7,0,8.3c0,0,0,0,0,0c0,4.6,3.7,8.3,8.3,8.3
	c0,0,0,0,0,0c1.9,0,3.7-0.6,5.1-1.8C11.4,13.2,10.2,10.8,10.2,8.3z"/>
<path class="st1" d="M26.8,8.3c0,4.6-3.7,8.3-8.3,8.3c-1.9,0-3.7-0.6-5.1-1.8c2-1.6,3.2-4,3.2-6.5c0-2.5-1.2-4.9-3.2-6.5
	C14.9,0.6,16.7,0,18.5,0C23.1,0,26.8,3.7,26.8,8.3z"/>
<path class="st2" d="M13.4,1.8L13.4,1.8c-2,1.6-3.2,4-3.2,6.5c0,2.5,1.2,4.9,3.2,6.5h0c2-1.6,3.2-4,3.2-6.5
	C16.6,5.8,15.4,3.3,13.4,1.8L13.4,1.8z"/>
<path class="st3" d="M25.5,19.7v-2h-0.5v1.2c-0.2-0.2-0.4-0.3-0.7-0.3c-0.6,0-1.1,0.5-1.1,1.1c0,0.7,0.5,1.2,1.1,1.2
	c0.3,0,0.6-0.1,0.7-0.3v0.3h0.5V19.7z M11.3,18.6H12V19h-0.8v1c0,0.2,0.1,0.4,0.3,0.4c0.1,0,0.3,0,0.4-0.1l0.1,0.4
	c-0.2,0.1-0.4,0.2-0.6,0.2c-0.6,0-0.8-0.3-0.8-0.8v-1h-0.4v-0.4h0.4v-0.7h0.5L11.3,18.6L11.3,18.6z M4.9,19.4v1.4H4.4v-1.2
	c0-0.4-0.2-0.6-0.5-0.6c-0.3,0-0.5,0.2-0.5,0.6v1.2H2.9v-1.2c0-0.4-0.2-0.6-0.5-0.6c-0.3,0-0.5,0.2-0.5,0.6v1.2H1.4v-2.2h0.5v0.3
	c0.1-0.2,0.4-0.3,0.6-0.3c0.3,0,0.6,0.1,0.7,0.4c0.2-0.3,0.5-0.4,0.8-0.4C4.6,18.5,4.9,18.9,4.9,19.4L4.9,19.4L4.9,19.4z M16.1,18.5
	c-0.2,0-0.5,0.1-0.6,0.3v-0.3h-0.5v2.2h0.5v-1.2c0-0.4,0.2-0.6,0.5-0.6c0.1,0,0.2,0,0.3,0l0.1-0.5C16.4,18.5,16.2,18.5,16.1,18.5z
	 M9.1,18.5c0.3,0,0.7,0.1,0.9,0.2l-0.2,0.4C9.6,19.1,9.3,19,9.1,19c-0.3,0-0.4,0.1-0.4,0.3c0,0.1,0.2,0.2,0.4,0.2l0.2,0
	c0.5,0.1,0.8,0.3,0.8,0.7c0,0.4-0.4,0.7-1,0.7c-0.3,0-0.7-0.1-0.9-0.3l0.2-0.4c0.2,0.1,0.4,0.2,0.7,0.2c0.3,0,0.5-0.1,0.5-0.3
	c0-0.1-0.1-0.2-0.4-0.2l-0.2,0c-0.5-0.1-0.8-0.3-0.8-0.6C8.1,18.8,8.5,18.5,9.1,18.5C9.1,18.5,9.1,18.5,9.1,18.5z M22.8,18.5
	c-0.2,0-0.5,0.1-0.6,0.3v-0.3h-0.5v2.2h0.5v-1.2c0-0.4,0.2-0.6,0.5-0.6c0.1,0,0.2,0,0.3,0l0.1-0.5C23,18.5,22.9,18.5,22.8,18.5z
	 M17.8,20.8c-0.7,0-1.2-0.5-1.2-1.2c0-0.7,0.5-1.1,1.2-1.1c0.3,0,0.6,0.1,0.8,0.3l-0.2,0.4C18.2,19,18,19,17.8,19
	c-0.4,0-0.7,0.3-0.7,0.7c0,0.4,0.3,0.7,0.7,0.7c0.2,0,0.4-0.1,0.6-0.2l0.2,0.4C18.4,20.7,18.1,20.8,17.8,20.8L17.8,20.8z M21.1,19.7
	v-1.1h-0.5v0.3c-0.2-0.2-0.4-0.3-0.7-0.3c-0.6,0-1.1,0.5-1.1,1.1c0,0.7,0.5,1.2,1.1,1.2c0.3,0,0.6-0.1,0.7-0.3v0.3h0.5V19.7
	C21.1,19.7,21.1,19.7,21.1,19.7z M20,19c-0.4,0-0.7,0.3-0.7,0.7c0,0.4,0.3,0.7,0.7,0.7c0.4,0,0.7-0.3,0.7-0.7
	C20.7,19.3,20.4,19,20,19L20,19z M13.5,18.5c-0.6,0-1.1,0.5-1.1,1.1c0,0.7,0.5,1.2,1.1,1.2c0.3,0,0.6-0.1,0.9-0.3l-0.2-0.3
	c-0.2,0.1-0.4,0.2-0.6,0.2c-0.3,0-0.6-0.1-0.7-0.5h1.6v-0.2C14.6,19,14.2,18.5,13.5,18.5z M14.1,19.5c0-0.3-0.3-0.5-0.6-0.5
	c-0.3,0-0.6,0.2-0.6,0.5H14.1z M24.4,19c-0.4,0-0.7,0.3-0.7,0.7c0,0.4,0.2,0.7,0.7,0.7c0.4,0,0.7-0.3,0.7-0.7
	C25.1,19.3,24.8,19,24.4,19L24.4,19z M7.6,19.7v-1.1H7.1v0.3c-0.2-0.2-0.4-0.3-0.7-0.3c-0.6,0-1.1,0.5-1.1,1.1
	c0,0.7,0.5,1.2,1.1,1.2c0.3,0,0.6-0.1,0.7-0.3v0.3h0.5V19.7C7.6,19.7,7.6,19.7,7.6,19.7z M6.5,19c-0.4,0-0.7,0.3-0.7,0.7
	c0,0.4,0.3,0.7,0.7,0.7c0.4,0,0.7-0.3,0.7-0.7C7.1,19.3,6.9,19,6.5,19z"/>
</svg>
