<svg width="46" height="32" viewBox="0 0 46 32" fill="none" xmlns="http://www.w3.org/2000/svg">
    <g clip-path="url(#0mop9usjda)">
        <path d="M45.997 15.127C45.997 6.8 35.7 0 22.998 0 10.297 0 0 6.792 0 15.127v.883C0 24.851 9.001 32 22.998 32c14.084 0 22.999-7.155 22.999-15.99v-.883z" fill="#283480"/>
        <path d="M45.115 15.117c0 7.855-9.899 14.224-22.11 14.224S.89 22.986.89 15.117 10.791.893 23.005.893c12.215 0 22.11 6.369 22.11 14.224z" fill="#009FE3"/>
        <path d="M15.664 10.66c0 .023-.236.253-.09.437.331.45 1.425.706 2.514.46.663-.147 1.481-.814 2.286-1.457.875-.696 1.743-1.395 2.611-1.665a2.966 2.966 0 0 1 1.905-.05c.631.23 1.219.568 1.736 1 1.51 1.142 7.596 6.482 8.663 7.405a52.071 52.071 0 0 1 9.707-3.132c-.43-2.758-2.087-5.263-4.618-7.329-3.505 1.483-7.789 2.252-11.976.197-.02 0-2.29-1.086-4.526-1.036-3.313.08-4.76 1.526-6.294 3.055l-1.918 2.115z" fill="#fff"/>
        <path d="M35.028 17.352c-.07-.047-7.156-6.296-8.76-7.509-.927-.7-1.444-.876-1.987-.946a2.66 2.66 0 0 0-.944.09c-.746.203-1.723.86-2.591 1.552-.868.693-1.743 1.396-2.525 1.573a4.095 4.095 0 0 1-2.786-.424 1.24 1.24 0 0 1-.46-.51.867.867 0 0 1 .235-.929l1.954-2.125c.23-.23.458-.456.693-.666a12.46 12.46 0 0 0-1.78.39 7.76 7.76 0 0 1-2.076.39 19.955 19.955 0 0 1-2.124-.334 31.647 31.647 0 0 1-5.632-2.049c-2.78 2.082-4.638 4.68-5.175 7.546.401.106 1.044.3 1.325.36 6.295 1.405 8.246 2.854 8.614 3.154a2.08 2.08 0 0 1 3.27.193 2.36 2.36 0 0 1 1.474-.533c.306.003.61.058.898.16a2.048 2.048 0 0 1 1.265 1.15 2.05 2.05 0 0 1 .878-.187c.36.004.715.082 1.044.23 1.16.503 1.325 1.646 1.236 2.508h.248a2.476 2.476 0 0 1 1.762.728 2.505 2.505 0 0 1 .733 1.767c.003.418-.1.83-.298 1.196.37.214 1.325.69 2.163.583.663-.083.921-.313 1.014-.443.093-.13.129-.193.066-.266l-1.772-1.999s-.295-.28-.2-.386c.097-.107.283.05.412.156.9.76 1.987 1.902 1.987 1.902s.093.157.5.23a1.845 1.845 0 0 0 1.402-.333c.114-.1.217-.212.308-.333h-.02a.95.95 0 0 0-.06-1.15l-2.07-2.331s-.298-.277-.199-.387c.1-.11.282.047.411.157.663.55 1.584 1.486 2.472 2.362.172.126.954.613 1.987-.07a1.435 1.435 0 0 0 .736-1.306 1.509 1.509 0 0 0-.43-.86l-2.83-2.858s-.298-.256-.192-.386c.106-.13.278.047.407.153.901.76 3.34 2.998 3.34 2.998a1.71 1.71 0 0 0 1.921-.04 1.286 1.286 0 0 0 .63-1.02 1.508 1.508 0 0 0-.474-1.148z" fill="#fff"/>
        <path d="M21.302 20.986c-.437 0-.917.257-.994.217-.076-.04.027-.2.07-.303.043-.104.62-1.85-.788-2.456-1.08-.466-1.74.06-1.965.297-.06.06-.086.056-.093-.023a1.565 1.565 0 0 0-.314-.904 1.55 1.55 0 0 0-.78-.549 2.116 2.116 0 0 0-2.398.86 1.552 1.552 0 0 0-1.08-1.283 1.533 1.533 0 0 0-1.606.462 1.552 1.552 0 0 0 1.162 2.57 1.504 1.504 0 0 0 1.067-.45.05.05 0 0 1 0 .053c-.1.477-.027.974.206 1.402.232.428.61.758 1.063.93a1.51 1.51 0 0 0 1.488-.23c.122-.087.142-.05.125.063-.053.36 0 1.13 1.084 1.566a1.374 1.374 0 0 0 1.613-.303c.136-.127.176-.107.182.09.011.383.134.754.353 1.067a1.943 1.943 0 0 0 1.995.785 1.955 1.955 0 0 0 1.386-2.657 1.95 1.95 0 0 0-.708-.87 1.933 1.933 0 0 0-1.068-.334z" fill="#fff"/>
        <path d="M35.29 16.606c-2.18-1.913-7.223-6.33-8.588-7.352A6.078 6.078 0 0 0 24.92 8.21a2.868 2.868 0 0 0-.872-.137 3.597 3.597 0 0 0-1.11.19c-.884.28-1.762 1-2.613 1.666l-.043.033c-.792.633-1.61 1.29-2.23 1.43-.272.06-.55.091-.828.092-.693 0-1.325-.203-1.55-.503-.037-.05 0-.13.076-.246l1.94-2.075c1.505-1.51 2.926-2.939 6.193-2.999h.162a11.48 11.48 0 0 1 4.287 1c1.819.916 3.823 1.399 5.857 1.412a15.263 15.263 0 0 0 6.427-1.549c-.248-.21-.51-.416-.778-.62a14.02 14.02 0 0 1-5.632 1.29 12.381 12.381 0 0 1-5.48-1.333 12.331 12.331 0 0 0-4.674-1.126h-.199c-2.746.067-4.307 1.046-5.33 1.906-.901.046-1.792.21-2.65.486a7.058 7.058 0 0 1-1.876.363c-.242 0-.663-.023-.712-.023-.663-.02-4.052-.856-6.742-1.879-.275.197-.537.397-.795.603 2.81 1.16 6.228 2.055 7.308 2.125.298.02.62.054.938.054a7.803 7.803 0 0 0 2.117-.377c.407-.113.854-.24 1.325-.333l-.368.367-1.951 2.122a1 1 0 0 0-.265 1.082c.112.237.29.436.513.573a4.01 4.01 0 0 0 2.068.52c.277.001.553-.028.824-.087.819-.186 1.677-.872 2.584-1.599.726-.576 1.753-1.312 2.541-1.529.231-.06.468-.093.706-.096.06-.004.122-.004.182 0 .52.066 1.024.246 1.922.922 1.6 1.21 8.683 7.44 8.753 7.502a1.364 1.364 0 0 1 .424 1.046 1.14 1.14 0 0 1-.563.91 1.72 1.72 0 0 1-.931.293 1.587 1.587 0 0 1-.822-.24c-.026-.023-2.452-2.258-3.343-2.998a.74.74 0 0 0-.42-.227.233.233 0 0 0-.186.09c-.142.174 0 .413.202.573l2.83 2.875c.211.207.35.479.393.773a1.312 1.312 0 0 1-.662 1.183 1.832 1.832 0 0 1-.994.333c-.288 0-.569-.086-.808-.247l-.408-.403c-.739-.746-1.497-1.495-2.067-1.969a.77.77 0 0 0-.424-.22.245.245 0 0 0-.179.077c-.063.073-.106.2.053.413.043.059.09.113.143.163l2.067 2.332a.792.792 0 0 1 .046 1l-.103.106a1.7 1.7 0 0 1-.192.187 1.65 1.65 0 0 1-1.272.31.713.713 0 0 1-.407-.173l-.027-.027c-.113-.117-1.156-1.19-2.018-1.912a.7.7 0 0 0-.404-.217.25.25 0 0 0-.185.083c-.17.19.086.47.195.573l1.763 1.956a.358.358 0 0 1-.067.12c-.062.086-.278.303-.917.383h-.232a3.996 3.996 0 0 1-1.736-.526 2.658 2.658 0 0 0-.157-2.546 2.636 2.636 0 0 0-2.222-1.229h-.112c.05-.666-.047-1.928-1.325-2.485a2.713 2.713 0 0 0-1.1-.243 2.153 2.153 0 0 0-.805.147 2.236 2.236 0 0 0-1.29-1.103 2.967 2.967 0 0 0-.943-.167 2.484 2.484 0 0 0-1.471.473 2.221 2.221 0 0 0-1.485-.83 2.205 2.205 0 0 0-1.633.47 1.912 1.912 0 0 0-.195.174c-.55-.42-2.73-1.812-8.56-3.145-.282-.063-.928-.25-1.326-.366-.066.318-.116.64-.15.962l1.286.307c5.964 1.332 7.925 2.712 8.26 2.975a2.252 2.252 0 0 0 .474 2.446 2.229 2.229 0 0 0 1.994.625 2.598 2.598 0 0 0 1.683 1.952c.25.102.518.156.788.16.172 0 .344-.02.51-.063a2.332 2.332 0 0 0 1.382 1.302c.278.116.576.178.878.18.232 0 .463-.04.682-.12a2.637 2.637 0 0 0 1.928 1.589 2.61 2.61 0 0 0 2.379-.75c.68.398 1.444.627 2.23.667.11 0 .22-.007.33-.02.899-.117 1.326-.47 1.511-.743.035-.049.066-.1.093-.153.232.07.471.107.713.113a2.39 2.39 0 0 0 1.444-.52c.433-.287.737-.732.848-1.242.16.033.321.05.484.05a2.667 2.667 0 0 0 1.477-.473 2.15 2.15 0 0 0 1.064-1.912c.16.033.323.05.487.05a2.562 2.562 0 0 0 1.385-.427 2.045 2.045 0 0 0 .964-1.579 2.129 2.129 0 0 0-.279-1.279 56.893 56.893 0 0 1 9.187-2.891 7.766 7.766 0 0 0-.13-.96 52.934 52.934 0 0 0-9.683 3.152zM21.301 24.74a1.784 1.784 0 0 1-1.247-.498 1.804 1.804 0 0 1-.552-1.23c0-.08 0-.304-.195-.304a.33.33 0 0 0-.219.117 1.26 1.26 0 0 1-.868.403 1.517 1.517 0 0 1-.58-.13c-1.027-.416-1.043-1.126-.994-1.409a.272.272 0 0 0-.036-.22l-.063-.056h-.066a.33.33 0 0 0-.176.073c-.25.193-.555.302-.871.313-.167 0-.333-.033-.487-.097a1.892 1.892 0 0 1-.998-.877 1.908 1.908 0 0 1-.178-1.321.184.184 0 0 0-.06-.177l-.096-.08-.09.087a1.402 1.402 0 0 1-2.319-.499 1.42 1.42 0 0 1 .541-1.668 1.4 1.4 0 0 1 1.739.148c.23.218.381.508.427.823l.047.38.208-.333a2.064 2.064 0 0 1 1.637-.863c.207 0 .412.032.61.093a1.425 1.425 0 0 1 .993 1.333.171.171 0 0 0 .099.178c.022.01.046.015.07.015a.223.223 0 0 0 .163-.083 1.411 1.411 0 0 1 1.033-.44c.268.006.531.067.775.176 1.326.57.723 2.256.713 2.276-.113.28-.116.403 0 .473l.053.026h.036a.872.872 0 0 0 .259-.07c.224-.089.461-.14.702-.153a1.791 1.791 0 0 1 1.403.402 1.812 1.812 0 0 1 .647 1.314 1.823 1.823 0 0 1-.531 1.366 1.801 1.801 0 0 1-1.363.522 1.226 1.226 0 0 1-.156 0l-.01-.01z" fill="#283480"/>
    </g>
    <defs>
        <clipPath id="0mop9usjda">
            <path fill="#fff" d="M0 0h46v32H0z"/>
        </clipPath>
    </defs>
</svg>
