<?xml version="1.0" encoding="utf-8"?>
<!-- Generator: Adobe Illustrator 23.0.4, SVG Export Plug-In . SVG Version: 6.00 Build 0)  -->
<svg version="1.1" id="Capa_1" xmlns="http://www.w3.org/2000/svg" xmlns:xlink="http://www.w3.org/1999/xlink" x="0px" y="0px"
	 viewBox="0 0 78.8 27.2" style="enable-background:new 0 0 78.8 27.2;" xml:space="preserve">
<style type="text/css">
	.st0{fill:#FF9E18;}
	.st1{fill:url(#SVGID_1_);}
	.st2{fill:#FF5100;}
	.st3{fill:#96262C;}
</style>
<g>
	<g>
		<path class="st0" d="M0,20.1v-4.6c3.8,0,6.9-3.1,6.9-6.9V2.3h4.6v6.4C11.4,14.9,6.3,20.1,0,20.1z"/>
		
			<linearGradient id="SVGID_1_" gradientUnits="userSpaceOnUse" x1="0" y1="17.3272" x2="11.429" y2="17.3272" gradientTransform="matrix(1 0 0 -1 0 28.4998)">
			<stop  offset="0" style="stop-color:#FF9E18;stop-opacity:0"/>
			<stop  offset="5.800000e-02" style="stop-color:#FC9018;stop-opacity:6.300000e-02"/>
			<stop  offset="0.241" style="stop-color:#F26A1A;stop-opacity:0.259"/>
			<stop  offset="0.422" style="stop-color:#EA4C1A;stop-opacity:0.453"/>
			<stop  offset="0.599" style="stop-color:#E5361B;stop-opacity:0.644"/>
			<stop  offset="0.771" style="stop-color:#E22A1B;stop-opacity:0.828"/>
			<stop  offset="0.931" style="stop-color:#E1251B"/>
		</linearGradient>
		<path class="st1" d="M0,20.1v-4.6c3.8,0,6.9-3.1,6.9-6.9V2.3h4.6v6.4C11.4,14.9,6.3,20.1,0,20.1z"/>
		<path class="st2" d="M24.2,0.9c0.1,0.1,0.2,0.3,0.2,0.4c0,0.4-0.3,0.6-0.6,0.6c-0.1,0-0.2,0-0.3-0.1c-0.1,0-0.2-0.1-0.2-0.1
			c-0.1-0.1-0.2-0.3-0.2-0.5c0-0.2,0.1-0.3,0.2-0.5c0.1-0.1,0.3-0.2,0.4-0.2C23.9,0.7,24.1,0.8,24.2,0.9z M23.3,1
			c-0.1,0.1-0.1,0.2-0.1,0.3c0,0.1,0.1,0.3,0.2,0.4c0.1,0.1,0.2,0.1,0.3,0.1c0.1,0,0.3-0.1,0.4-0.2c0.1-0.1,0.1-0.2,0.1-0.3
			c0-0.1-0.1-0.3-0.2-0.4c-0.1-0.1-0.2-0.1-0.3-0.1C23.6,0.8,23.4,0.9,23.3,1L23.3,1z M23.9,1.2c-0.1-0.1-0.1-0.1-0.2-0.1
			c-0.1,0-0.1,0-0.2,0.1c0,0-0.1,0.1-0.1,0.2c0,0.1,0,0.1,0.1,0.2c0,0,0.1,0.1,0.2,0.1c0,0,0.1,0,0.1,0c0,0,0.1,0,0.1-0.1L24,1.6
			l0,0c-0.1,0.1-0.2,0.1-0.3,0.1c-0.1,0-0.2,0-0.3-0.1c-0.1-0.1-0.1-0.2-0.1-0.2c0-0.1,0-0.2,0.1-0.3C23.6,1,23.7,0.9,23.8,1
			C23.9,1,24,1,24.1,1.1L23.9,1.2L23.9,1.2z"/>
		<path class="st3" d="M20.1,24.3c-0.8,0-1.6-0.5-2-1.2L7.1,3.4C6.5,2.3,6.9,0.9,8,0.3c0,0,0,0,0,0c1.1-0.6,2.5-0.2,3.1,0.9
			c0,0,0,0,0,0l10.9,19.8c0.6,1.1,0.2,2.5-0.9,3.1c0,0,0,0,0,0C20.8,24.2,20.4,24.3,20.1,24.3z"/>
		<path class="st2" d="M20.1,24.3c-1.3,0-2.3-1-2.3-2.3c0,0,0,0,0,0V2.3c0-1.3,1-2.3,2.3-2.3c0.6,0,1.2,0.2,1.6,0.7
			c0.4,0.4,0.7,1,0.7,1.6V22C22.4,23.3,21.3,24.3,20.1,24.3C20.1,24.3,20.1,24.3,20.1,24.3z M26.9,23.5V12.9h1.6l5.5,7.4v-7.4H36
			v10.7h-1.6l-5.5-7.4v7.4H26.9L26.9,23.5z M44.6,23.5h-1.8v-0.4c-0.6,0.5-1.2,0.7-1.9,0.7c-1.1,0-2-0.4-2.8-1.2
			c-0.6-0.7-1-1.6-1-2.5c0-1.1,0.4-2.1,1.2-2.8c0.7-0.6,1.5-0.9,2.5-0.9c0.7,0,1.3,0.2,1.9,0.7v-0.4h1.8
			C44.6,16.5,44.6,23.5,44.6,23.5z M39.5,18.6C39.2,19,39,19.4,39,20c0,0.7,0.2,1.2,0.6,1.6c0.4,0.4,0.8,0.6,1.3,0.6
			c0.6,0,1.1-0.2,1.5-0.7c0.3-0.4,0.4-0.8,0.4-1.4c0-0.6-0.2-1.2-0.6-1.6c-0.4-0.4-0.8-0.6-1.4-0.6C40.3,17.9,39.8,18.1,39.5,18.6z
			 M48.1,16.9c0.4-0.3,0.9-0.5,1.4-0.5c0.2,0,0.4,0,0.7,0.1v1.6c-0.3,0-0.5,0-0.7,0c-0.5,0-0.9,0.1-1.1,0.4
			c-0.2,0.3-0.3,0.8-0.3,1.6v3.4h-1.8v-7.1h1.8V16.9L48.1,16.9z M58.2,23.5h-1.8v-0.4c-0.6,0.5-1.2,0.7-1.9,0.7
			c-1.1,0-2-0.4-2.8-1.2c-0.6-0.7-1-1.6-1-2.5c0-1.1,0.4-2.1,1.2-2.8c0.7-0.6,1.5-0.9,2.5-0.9c0.7,0,1.3,0.2,1.9,0.7v-0.4h1.8
			C58.2,16.5,58.2,23.5,58.2,23.5z M53,18.6c-0.3,0.4-0.4,0.8-0.4,1.4c0,0.7,0.2,1.2,0.6,1.6c0.4,0.4,0.8,0.6,1.3,0.6
			c0.6,0,1.1-0.2,1.5-0.7c0.3-0.4,0.4-0.8,0.4-1.4c0-0.6-0.2-1.2-0.6-1.6c-0.4-0.4-0.8-0.6-1.4-0.6C53.9,17.9,53.4,18.1,53,18.6z
			 M61.7,16.8c0.5-0.4,1.1-0.6,1.6-0.6c0.8,0,1.7,0.4,2.2,0.9c0.6,0.6,0.8,1.4,0.8,2.6v3.8h-1.8v-3.7c0-0.8-0.1-1.3-0.4-1.6
			c-0.2-0.2-0.6-0.4-0.9-0.4c-0.5,0-0.9,0.2-1.2,0.5c-0.2,0.3-0.3,0.8-0.3,1.6v3.5h-1.8v-7.1h1.8L61.7,16.8L61.7,16.8z M70,13.3
			c0.2,0.2,0.3,0.5,0.3,0.8c0,0.3-0.1,0.6-0.3,0.8c-0.2,0.2-0.5,0.3-0.8,0.3c-0.3,0-0.6-0.1-0.8-0.3c-0.2-0.2-0.4-0.5-0.3-0.8
			c0-0.3,0.1-0.6,0.3-0.8c0.2-0.2,0.5-0.3,0.8-0.3C69.5,12.9,69.7,13.1,70,13.3z M78.7,23.5h-1.8v-0.4c-0.6,0.5-1.2,0.7-1.9,0.7
			c-1.1,0-2-0.4-2.8-1.2c-0.6-0.7-1-1.6-1-2.5c0-1.1,0.4-2.1,1.2-2.8c0.7-0.6,1.5-0.9,2.5-0.9c0.7,0,1.3,0.2,1.9,0.7v-0.4h1.8
			C78.7,16.5,78.7,23.5,78.7,23.5z M73.6,18.6c-0.3,0.4-0.4,0.8-0.4,1.4c0,0.7,0.2,1.2,0.6,1.6c0.4,0.4,0.8,0.6,1.3,0.6
			c0.6,0,1.1-0.2,1.5-0.7c0.3-0.4,0.4-0.8,0.4-1.4c0-0.6-0.2-1.2-0.6-1.6C76,18,75.6,17.9,75,17.9C74.4,17.9,73.9,18.1,73.6,18.6
			L73.6,18.6z M68.2,16.5v7.4c0,0.3-0.1,1.5-1.8,1.6v1.8c0,0,3.5-0.1,3.6-3.2v-7.5H68.2z"/>
	</g>
</g>
</svg>
