<?xml version="1.0" encoding="utf-8"?>
<!-- Generator: Adobe Illustrator 23.0.4, SVG Export Plug-In . SVG Version: 6.00 Build 0)  -->
<svg version="1.1" id="Capa_1" xmlns="http://www.w3.org/2000/svg" xmlns:xlink="http://www.w3.org/1999/xlink" x="0px" y="0px"
	 viewBox="0 0 38.4 38.4" style="enable-background:new 0 0 38.4 38.4;" xml:space="preserve">
<style type="text/css">
	.st0{fill:#FBDC13;}
	.st1{fill:#FFFFFF;}
	.st2{fill-rule:evenodd;clip-rule:evenodd;fill:#E11C83;}
	.st3{fill:#195DA7;}
	.st4{fill:#A11A7E;}
</style>
<path class="st0" d="M19.2,38.4c10.6,0,19.2-8.6,19.2-19.2C38.4,8.6,29.8,0,19.2,0S0,8.6,0,19.2C0,29.8,8.6,38.4,19.2,38.4z"/>
<path class="st1" d="M35.6,16h-0.4l-6.1,1.6L26.2,6.8c-0.1-0.3-0.3-0.4-0.6-0.4h-0.2L7.8,10.9c-0.4,0.1-0.5,0.4-0.4,0.7L10,22.3
	l-6,1.6c-0.3,0.1-0.4,0.3-0.4,0.5v0.1c0,0.3,0.2,0.4,0.4,0.5l18.8,8.2c0.1,0,0.2,0.1,0.3,0.1c0.2,0,0.4-0.1,0.4-0.3L35.9,17
	c0.1-0.1,0.1-0.3,0.1-0.4C36,16.3,35.8,16.1,35.6,16L35.6,16z"/>
<path class="st2" d="M35.4,16.6l-6.7,1.7L25.6,6.9L8,11.6l2.8,11.3l-6.5,1.7l18.8,8.3L35.4,16.6L35.4,16.6L35.4,16.6z"/>
<path class="st1" d="M35,12.3L34.9,12v-0.1l-0.2-0.4c-0.1-0.3-0.3-0.4-0.4-0.6c-0.2-0.2-0.3-0.4-0.5-0.5c-0.4-0.3-0.8-0.5-1.2-0.7
	c-1-0.4-2.1-0.4-3.5,0c-1,0.3-1.9,0.6-2.5,1.2c-0.6,0.5-1.1,1.1-1.4,1.8v0.1c-0.2-0.3-0.4-0.4-0.8-0.6c-0.5-0.3-1.2-0.4-1.8-0.4
	h-1.1c-0.4,0-0.7,0.1-1.1,0.2c-0.7,0.2-1.4,0.4-2,0.8c-0.1,0-0.2,0.1-0.2,0.1c-0.1,0-0.2,0.1-0.3,0.2c-0.4,0.3-0.7,0.6-1,1
	c-0.4,0.6-0.7,1.2-0.7,1.9l-1.5-1.9c-0.2-0.2-0.4-0.3-0.7-0.3l-2.8,0.7c-0.3,0.1-0.5,0.3-0.5,0.5l-0.2,1.2c-0.2-0.1-0.3-0.2-0.4-0.3
	c-0.4-0.2-1-0.3-1.6-0.3c-0.5,0-1.2,0.1-2,0.3l-4,1c-0.4,0.1-0.6,0.4-0.5,0.8l1.4,6c0,0.2,0.2,0.4,0.4,0.4c0.1,0.1,0.3,0.1,0.4,0.1
	h0.2l8.4-2.1c0.3-0.1,0.4-0.3,0.5-0.6l0.1-0.4l1.8-0.4l0.3,0.4c0.2,0.3,0.4,0.4,0.7,0.3l2.7-0.7c0.3-0.1,0.4-0.3,0.4-0.4v-0.1
	c0.8,0.2,1.7,0.1,2.7-0.2c0.8-0.2,1.4-0.5,2-0.9c0.2,0.1,0.4,0.2,0.5,0.1l1.7-0.4c0.4-0.1,0.6-0.4,0.5-0.8c0,0,0.4-0.4,0.7-0.2
	c1,0.4,2.1,0.4,3.5,0c1-0.3,1.9-0.6,2.5-1.2c0.7-0.5,1.2-1.2,1.4-1.9C35.2,13.7,35.2,13,35,12.3z"/>
<path class="st3" d="M34.6,12.4l-0.1-0.3l-0.2-0.4c-0.1-0.2-0.2-0.4-0.4-0.5c-0.1-0.2-0.3-0.3-0.4-0.4c-0.4-0.3-0.7-0.4-1.1-0.6
	c-0.8-0.3-1.9-0.3-3.1,0c-0.9,0.3-1.7,0.6-2.3,1.1c-0.6,0.4-1.1,1-1.2,1.5c-0.2,0.5-0.3,1.2-0.1,1.8l0.2,0.5l0.1,0.3
	c0.4,0.7,1,1.2,1.8,1.5c0.4,0.2,0.9,0.2,1.3,0.2c0.5,0,1.2-0.1,1.8-0.3c0.9-0.3,1.7-0.6,2.3-1.1c0.6-0.4,1.1-1.1,1.2-1.7
	C34.8,13.6,34.8,13,34.6,12.4L34.6,12.4z M29.8,12.1c0.4-0.1,0.8-0.1,1.1,0c0.3,0.1,0.5,0.4,0.6,0.7c0.3,0.4,0.3,1,0.2,1.5
	c-0.1,0.5-0.5,0.8-1.2,1c-0.8,0.2-1.3,0-1.7-0.7c-0.3-0.8-0.3-1.4-0.1-1.8C29,12.4,29.3,12.2,29.8,12.1z M21.6,15.5l0.4,1.3l1.2-0.4
	c-0.1,0.2-0.2,0.4-0.4,0.6c-0.2,0.2-0.5,0.4-0.8,0.4c-0.9,0.3-1.4,0-1.8-0.6c-0.3-0.8-0.4-1.4-0.1-1.9c0.2-0.4,0.5-0.5,1-0.7
	c0.7-0.2,1.2-0.1,1.4,0.4l0.1,0.1l2.8-0.7l-0.1-0.2c-0.3-0.4-0.5-0.8-1-1.1c-0.4-0.3-1-0.4-1.6-0.4h-1c-0.3,0-0.6,0.1-1,0.2
	c-0.6,0.2-1.2,0.4-1.8,0.7c-0.5,0.3-0.9,0.7-1.2,1.1C17.1,15,16.9,16,17.2,17l0.1,0.4l0.2,0.4c0,0.1,0.1,0.2,0.1,0.2l-3-3.6
	l-2.8,0.9l-0.5,2.4c0-0.2-0.1-0.3-0.2-0.4c-0.2-0.3-0.5-0.6-0.8-0.8C9.8,16.1,9.3,16,8.8,16c-0.5,0-1.1,0.1-1.9,0.3l-4,1.1l1.4,6.2
	l2.9-0.8l-0.4-1.9l1.2-0.4c1.2-0.4,2-0.8,2.6-1.3L10,22l2.8-0.7l0.1-0.9l2.5-0.6l0.5,0.7l2.9-0.8l-1.1-1.2c0.4,0.3,0.7,0.5,1.2,0.6
	c0.8,0.3,1.8,0.3,2.8,0c1-0.3,1.7-0.7,2.2-1.2l0.2,0.4l2-0.5l-0.8-3.6C25.4,14.2,21.6,15.5,21.6,15.5z M14.8,18.8l-1.7,0.4l0.4-2.4
	L14.8,18.8L14.8,18.8z M6.5,19.4l-0.4-1.2c0,0,0.6-0.2,1-0.3C7.6,17.7,8,17.7,8.3,18c0.1,0.2,0.1,0.5,0,0.6
	c-0.2,0.2-0.4,0.3-0.7,0.4C7.2,19.2,6.5,19.4,6.5,19.4z"/>
<path class="st4" d="M26.6,23.5c0.1-0.2,0.3-0.4,0.4-0.4c0.6-0.8,1.2-1.6,1.8-2.5c0.2-0.3,0.4-0.7,0.5-1.1c0-0.1,0-0.2-0.1-0.3
	c-0.2-0.2-0.4-0.2-0.5,0c-1.2,1-2.1,2.4-2.6,3.9c0,0.1-0.1,0.2-0.1,0.3c-0.4,0.5-1,1.1-1.4,1.5c0,0.1-0.1,0.1-0.2,0.1
	c0,0-0.1,0.1-0.2,0c0,0,0-0.1-0.1-0.2v-0.1c0.1-0.4,0.2-0.6,0.3-0.9c0.1-0.3,0.3-0.5,0.4-0.9c0-0.1,0.1-0.2-0.1-0.2
	c-0.3,0-0.5,0-0.6,0.4c-0.1,0.1-0.1,0.3-0.2,0.4c-0.4,0.5-1,1.2-1.4,1.7c-0.3,0.4-0.7,0.6-1.2,0.7c-0.1,0-0.2,0-0.2-0.1v-0.4
	c0.1-0.5,0.4-1,0.8-1.4c0.2-0.2,0.4-0.4,0.6-0.4v0.2c-0.1,0.2-0.3,0.4-0.4,0.5c0,0,0,0.1-0.1,0.2c0.1,0,0.1,0.1,0.2,0
	c0.2,0,0.3-0.1,0.4-0.2c0.3-0.2,0.5-0.4,0.5-0.8c0-0.3-0.1-0.4-0.4-0.4h-0.1c-0.5,0.1-1,0.4-1.4,0.8L21,24.2c-0.4,0.5-1,1.2-1.4,1.7
	C19.5,26,19.4,26,19.3,26V26c0.1-0.2,0.1-0.4,0.2-0.5c0.2-0.4,0.4-0.8,0.5-1.2c0-0.1,0.1-0.2,0-0.2c-0.2-0.1-0.3-0.1-0.4,0
	c-0.2-0.2-0.4-0.2-0.4,0c-0.2,0.1-0.3,0.2-0.4,0.3c-0.6,0.6-1.1,1.3-1.4,2.1c-0.1,0.2-0.2,0.4-0.1,0.7c0,0.3,0.4,0.5,0.6,0.3
	l0.3-0.3c0.2-0.3,0.4-0.6,0.6-0.9v-0.2h0.1v0.2c0,0.2,0.1,0.4,0.1,0.4c0.1,0.3,0.3,0.3,0.4,0.1s0.4-0.4,0.6-0.7
	c0.2-0.2,0.4-0.4,0.4-0.6v0.3c0.1,0.5,0.4,0.8,1,0.5c0.2-0.1,0.4-0.2,0.5-0.4c0.5-0.4,0.9-0.9,1.3-1.3c0.1-0.1,0.2-0.2,0.3-0.4
	c0,0.2-0.1,0.3-0.1,0.4v0.5c0.1,0.3,0.3,0.4,0.6,0.4c0.2,0,0.5-0.1,0.6-0.3c0.3-0.4,0.6-0.7,0.9-1.1l0.3-0.3
	c0.1,0.2,0.1,0.4,0.2,0.5c0.2,0.4,0.4,0.6,0.9,0.4c0.2-0.1,0.4-0.2,0.4-0.4c0.7-0.8,1.3-1.8,1.9-2.7c0.1-0.1,0-0.2-0.1-0.3L29,21.6
	l-1.3,1.6c-0.3,0.4-0.6,0.7-1,0.9c-0.2,0.1-0.3,0.1-0.4-0.1C26.4,23.8,26.4,23.6,26.6,23.5z M28.4,19.9c0,0.4-1.2,2.5-1.5,2.6
	C27.2,21.5,27.7,20.7,28.4,19.9z M18,26.6C18,26.6,17.9,26.6,18,26.6v-0.2c0.3-0.6,0.6-1.2,1.2-1.8c0.1-0.1,0.2-0.1,0.3-0.2
	C18.9,25.2,18.5,26,18,26.6L18,26.6z M17.8,24.5c-0.1-0.1-0.1-0.2-0.2-0.3c-0.1-0.1-0.1-0.1-0.2-0.1h-0.4c-0.4,0-0.8,0.2-1.2,0.3
	c-0.1,0-0.2,0.1-0.4,0.1v-0.1c0.3-0.4,0.5-0.8,0.8-1.2c0.1-0.2,0.1-0.2-0.1-0.4c0.1-0.1,0.3-0.1,0.4-0.1c0.8-0.3,1.6-0.5,2.4-0.7
	c0.2-0.1,0.4-0.1,0.6-0.2c0,0,0.1,0,0.1-0.1c0,0,0-0.1-0.1-0.1c-0.3-0.2-0.6-0.3-0.9-0.3c-0.4,0-0.9,0.1-1.3,0.2
	c-0.9,0.2-1.8,0.5-2.6,0.9l-0.5,0.3c0-0.1,0.1-0.1,0.1-0.2c-0.1,0-0.2,0-0.2,0.1c-0.3,0.1-0.4,0.3-0.6,0.4c-0.2,0.1-0.4,0.3-0.4,0.4
	c-0.1,0.1-0.1,0.3,0,0.4c0.1,0.2,0.3,0.2,0.4,0.2l0.8-0.3c0.5-0.2,1-0.4,1.4-0.5H16l-0.3,0.3c-0.4,0.4-0.6,1-1,1.4
	c-0.1,0.1-0.2,0.2-0.3,0.3L14,25.4c-0.2,0.1-0.2,0.2-0.1,0.4C14,25.9,14,25.9,14,26c0.1,0.1,0.1,0.2,0,0.3c-0.3,0.5-0.4,1.1-0.4,1.6
	c0,0.1,0,0.2,0.1,0.3c0.2,0.2,0.4,0.2,0.5,0.2c0-0.2,0-0.3,0.1-0.4c0-0.2,0.1-0.3,0.2-0.4c0.2-0.4,0.4-0.8,0.4-1.2
	c0.1-0.2,0.2-0.4,0.4-0.4c0.8-0.4,1.6-0.6,2.3-1C17.6,24.6,17.7,24.5,17.8,24.5z M19.4,23.4v0.2h0.2c0.2-0.1,0.4-0.3,0.6-0.4
	c0.3-0.2,0.4-0.4,0.5-0.6c0-0.1,0-0.2,0.1-0.4c-0.1-0.1-0.2-0.3-0.3-0.3c-0.2-0.1-0.4-0.1-0.4,0.2c-0.1,0.4-0.4,0.9-0.6,1.2
	C19.5,23.3,19.4,23.4,19.4,23.4z"/>
<path class="st4" d="M24.8,22C24.8,22,24.9,22,24.8,22c0.3-0.3,0.4-0.4,0.5-0.6c0.1-0.1,0-0.2-0.1-0.3s-0.2-0.1-0.3,0l-0.4,0.4
	c-0.1,0.1-0.1,0.3-0.1,0.4C24.5,22,24.7,22,24.8,22z"/>
<path class="st1" d="M26.3,23.3c0.1-0.2,0.3-0.4,0.4-0.4c0.6-0.8,1.2-1.6,1.8-2.5c0.2-0.3,0.4-0.7,0.5-1.1c0-0.1,0-0.2-0.1-0.3
	c-0.2-0.2-0.4-0.2-0.5,0c-1.2,1-2.1,2.4-2.6,3.9c0,0.1-0.1,0.2-0.1,0.3c-0.4,0.5-1,1.1-1.4,1.5c0,0.1-0.1,0.1-0.2,0.1
	c0,0-0.1,0.1-0.2,0c0,0,0-0.1-0.1-0.2v-0.1c0.1-0.4,0.2-0.6,0.3-0.9s0.3-0.5,0.4-0.9c0-0.1,0.1-0.2-0.1-0.2c-0.3,0-0.5,0-0.6,0.4
	c-0.1,0.1-0.1,0.3-0.2,0.4c-0.4,0.5-1,1.2-1.4,1.7c-0.3,0.4-0.7,0.6-1.2,0.7c-0.1,0-0.2,0-0.2-0.1v-0.4c0.1-0.5,0.4-1,0.8-1.4
	c0.2-0.2,0.4-0.4,0.6-0.4v0.2c-0.1,0.2-0.3,0.4-0.4,0.5c0,0,0,0.1-0.1,0.2c0.1,0,0.1,0.1,0.2,0c0.2,0,0.3-0.1,0.4-0.2
	c0.3-0.2,0.5-0.4,0.5-0.8c0-0.3-0.1-0.4-0.4-0.4h-0.1c-0.5,0.1-1,0.4-1.4,0.8L20.7,24c-0.4,0.5-1,1.2-1.4,1.7
	c-0.1,0.1-0.2,0.2-0.3,0.2v-0.1c0.1-0.2,0.1-0.4,0.2-0.5c0.2-0.4,0.4-0.8,0.5-1.2c0-0.1,0.1-0.2,0-0.2c-0.2-0.1-0.3-0.1-0.4,0
	c-0.2-0.2-0.4-0.2-0.4,0c-0.2,0.1-0.3,0.2-0.4,0.3c-0.6,0.6-1.1,1.3-1.4,2.1c-0.1,0.2-0.2,0.4-0.1,0.7c0,0.3,0.4,0.5,0.6,0.3
	l0.3-0.3c0.2-0.3,0.4-0.6,0.6-0.9V26h0.1v0.2c0,0.2,0.1,0.4,0.1,0.4c0.1,0.3,0.3,0.3,0.4,0.1c0.2-0.2,0.4-0.4,0.6-0.7
	c0.2-0.2,0.4-0.4,0.4-0.6v0.3c0.1,0.5,0.4,0.8,1,0.5c0.2-0.1,0.4-0.2,0.5-0.4c0.5-0.4,0.9-0.9,1.3-1.3c0.1-0.1,0.2-0.2,0.3-0.4
	c0,0.2-0.1,0.3-0.1,0.4V25c0.1,0.3,0.3,0.4,0.6,0.4c0.2,0,0.5-0.1,0.6-0.3c0.3-0.4,0.6-0.7,0.9-1.1c0.1-0.1,0.2-0.2,0.3-0.3
	c0.1,0.2,0.1,0.4,0.2,0.5c0.2,0.4,0.4,0.6,0.9,0.4c0.2-0.1,0.4-0.2,0.4-0.4c0.7-0.8,1.3-1.8,1.9-2.7c0.1-0.1,0-0.2-0.1-0.3l-0.1,0.1
	L27.4,23c-0.3,0.4-0.6,0.7-1,0.9C26.2,24,26.1,24,26,23.8C26.1,23.6,26.2,23.5,26.3,23.3z M28.1,19.7c0,0.4-1.2,2.5-1.5,2.6
	C27,21.3,27.5,20.4,28.1,19.7L28.1,19.7z M17.7,26.4v-0.2c0.3-0.6,0.6-1.2,1.2-1.8c0.1-0.1,0.2-0.1,0.3-0.2
	C18.7,25.1,18.2,25.8,17.7,26.4z M17.5,24.4c-0.1-0.1-0.1-0.2-0.2-0.3C17.2,24,17.2,24,17.2,24h-0.4c-0.4,0-0.8,0.2-1.2,0.3
	c-0.1,0-0.2,0.1-0.4,0.1v-0.1c0.3-0.4,0.5-0.8,0.8-1.2c0.1-0.2,0.1-0.2-0.1-0.4c0.1-0.1,0.3-0.1,0.4-0.1c0.8-0.3,1.6-0.5,2.4-0.7
	c0.2-0.1,0.4-0.1,0.6-0.2c0,0,0.1,0,0.1-0.1c0,0,0-0.1-0.1-0.1c-0.3-0.2-0.6-0.3-0.9-0.3c-0.4,0-0.9,0.1-1.3,0.2
	c-0.9,0.2-1.8,0.5-2.6,0.9L14,22.7c0-0.1,0.1-0.1,0.1-0.2c-0.1,0-0.2,0-0.2,0.1c-0.3,0.1-0.4,0.3-0.6,0.4c-0.2,0.1-0.4,0.3-0.4,0.4
	c-0.1,0.1-0.1,0.3,0,0.4c0.1,0.2,0.3,0.2,0.4,0.2l0.8-0.3c0.5-0.2,1-0.4,1.4-0.5h0.2l-0.3,0.3c-0.4,0.4-0.6,1-1,1.4L14.2,25
	l-0.5,0.3c-0.2,0.1-0.2,0.2-0.1,0.4l0.2,0.2c0.1,0.1,0.1,0.2,0,0.3c-0.3,0.5-0.4,1.1-0.4,1.6c0,0.1,0,0.2,0.1,0.3
	c0.2,0.2,0.4,0.2,0.5,0.2c0-0.2,0-0.3,0.1-0.4c0-0.2,0.1-0.3,0.2-0.4c0.2-0.4,0.4-0.8,0.4-1.2c0.1-0.2,0.2-0.4,0.4-0.4
	c0.8-0.4,1.6-0.6,2.3-1C17.4,24.4,17.4,24.4,17.5,24.4L17.5,24.4z M19.1,23.2v0.2h0.2c0.2-0.1,0.4-0.3,0.6-0.4
	c0.3-0.2,0.4-0.4,0.5-0.6c0-0.1,0-0.2,0.1-0.4c-0.1-0.1-0.2-0.3-0.3-0.3c-0.2-0.1-0.4-0.1-0.4,0.2c-0.1,0.4-0.4,0.9-0.6,1.2
	C19.2,23,19.1,23.1,19.1,23.2z"/>
<path class="st1" d="M24.6,21.8C24.6,21.8,24.7,21.8,24.6,21.8c0.3-0.3,0.4-0.4,0.5-0.6c0.1-0.1,0-0.2-0.1-0.3
	c-0.1-0.1-0.2-0.1-0.3,0l-0.4,0.4c-0.1,0.1-0.1,0.3-0.1,0.4C24.4,21.8,24.4,21.9,24.6,21.8z"/>
</svg>
