<svg width="133" height="16" viewBox="0 0 133 16" fill="none" xmlns="http://www.w3.org/2000/svg">
    <g clip-path="url(#udk6eg1vra)">
        <path d="M58.368 11.193c-.13.426-.197 1.039-.384 1.084-.607.128-1.262.07-1.89.014-.072 0-.172-.462-.143-.697.246-1.902.52-3.803.618-5.781-.15.256-.308.505-.452.766-.68 1.24-1.384 2.47-2.028 3.729-.481.946-1.341.742-2.067.632-.312-.047-.651-.618-.779-1.014-.43-1.342-.77-2.71-1.32-4.088-.17 1.122-.343 2.244-.51 3.366-.106.7-.27 1.414-.288 2.137-.013.903-.434 1.136-1.253 1.03-.444-.03-.89-.034-1.334-.01.262-1.91.497-3.66.742-5.407.222-1.615.465-3.22.689-4.827.1-.723.239-1.364 1.181-1.427 1.459-.1 1.73.023 2.046 1.161.503 1.823.994 3.652 1.493 5.476.053.196.13.385.257.757.779-1.398 1.477-2.648 2.172-3.902.483-.87.946-1.749 1.447-2.607.48-.822 2.006-1.265 2.782-.748.23.152.402.618.365.903-.417 3.135-.882 6.255-1.344 9.453z" fill="#F89A2D"/>
        <path d="M28.105 14.435c.166-.77.457-1.106 1.276-.797a5.385 5.385 0 0 0 1.79.244c1.153.013 1.534-.374 1.674-1.637-.633.035-1.252.103-1.87.096-1.915-.025-2.98-1.042-3.07-2.938a9.081 9.081 0 0 1 .054-1.89c.452-2.787 2.405-4.303 5.269-4.05.87.102 1.732.259 2.582.47.523.112.705.44.618 1.004-.381 2.464-.72 4.934-1.076 7.407-.376 2.61-1.696 3.744-4.365 3.66-.78-.023-1.555-.227-2.332-.348-.729-.116-.899-.504-.547-1.21m4.967-4.37c.279-1.446.547-2.891.83-4.302-1.494-.416-2.37-.203-2.976.616-.605.818-.808 2.592-.325 3.264.613.85 1.479.642 2.47.421z" fill="#059FDC"/>
        <path d="M18.165 1.701c1.376 3.214-.51 6.143-3.959 6.235-.873.023-1.748 0-2.685 0-.195 1.304-.35 2.55-.59 3.781a.954.954 0 0 1-.646.6c-.617.085-1.253.027-2.015.027.244-1.781.465-3.433.702-5.09.283-1.987.598-3.974.864-5.961C9.938.53 10.32.169 11.086.17c1.425 0 2.852-.035 4.276.01 1.142.037 2.126.456 2.803 1.524m-4.414.813h-1.459l-.465 3.252h1.991c1.325-.017 2.06-.682 2.062-1.856 0-1.035-.49-1.386-2.13-1.396z" fill="#059FDD"/>
        <path d="M75.853 8.351c.389 1.527 1.227 2.09 2.764 1.832.799-.134 1.574-.392 2.347-.59.04.026.075.039.09.062 1.058 1.751.949 2.125-1.075 2.553-1.12.241-2.27.314-3.411.217-1.885-.17-2.934-1.241-3.282-3.071a8.782 8.782 0 0 1 .819-5.867c1.433-2.74 5.21-3.832 7.867-2.287.182.107.288.511.263.763-.03.332-.162.648-.38.903-.182.202-.592.415-.81.345-3.824-1.265-5.088 1.198-5.212 3.794-.02.425.008.846.02 1.346z" fill="#059FDC"/>
        <path d="M125.171 6.233c-.226 1.685-.465 3.292-.651 4.903-.073.634-.352 1.03-.986 1.073-1.415.094-2.837.253-4.246.18-1.41-.071-2.174-.868-2.321-2.102-.183-1.473.455-2.632 1.801-3.071a10.167 10.167 0 0 1 2.137-.362 16.997 16.997 0 0 1 1.688-.01c.193-1.061-.042-1.435-.974-1.422-.78.01-1.558.21-2.341.243-.237.01-.698-.272-.687-.392.037-.466-.667-1.13.182-1.389 1.61-.49 3.268-.723 4.923-.204 1.14.361 1.524 1.051 1.479 2.547m-2.874 3.307c.02-.344.042-.689.066-1.06-.695 0-1.305-.068-1.893.017-.882.127-1.471 1.178-.911 1.606.476.362 1.26.353 1.916.434.593.076.764-.34.822-.997z" fill="#069FDD"/>
        <path d="M24.675 12.322c-1.31.052-2.552.18-3.78.09-1.401-.098-2.187-.87-2.302-2.006-.182-1.667.4-2.825 1.838-3.19 1.181-.302 2.441-.347 3.734-.513.33-.83.047-1.296-1.02-1.265-.927.018-1.852.193-2.754.296-.064-.083-.119-.122-.133-.18-.434-1.514-.365-1.717 1.201-1.912a14.584 14.584 0 0 1 3.426-.034c1.345.152 2.033 1.053 1.902 2.396-.183 1.85-.42 3.7-.775 5.523-.064.327-.817.522-1.328.796m-1.08-1.886c.156-.636.313-1.264.5-2.027-.834.043-1.5.022-2.143.127-.644.104-.998.561-.949 1.22.05.657.562.81 1.094.828a9.3 9.3 0 0 0 1.497-.148z" fill="#079FDD"/>
        <path d="M37.657 6.586c1.028-2.53 3.13-3.653 5.6-3.028 1.306.333 2.214 1.25 2.309 2.573a9.784 9.784 0 0 1-.166 2.855c-.651 2.818-3.335 4.238-6.102 3.327-1.084-.36-1.815-1.102-1.884-2.195-.073-1.147.126-2.31.235-3.532m5.508.394c-.102-.672-.226-1.33-1.094-1.445-.911-.116-1.553.327-1.845 1.13a7.75 7.75 0 0 0-.423 2.097c-.049.704.111 1.409.954 1.64.764.21 1.544-.15 1.89-1.024.288-.703.363-1.495.518-2.398z" fill="#059FDC"/>
        <path d="M98.393 9.939c.093.036.128.05.139.074.815 1.756 1.065 1.752-1.094 2.348a1.19 1.19 0 0 1-.182.037c-1.707.18-3.464.459-4.558-1.32-.967-1.573-.427-4.861.955-6.346 1.2-1.29 3.437-1.717 5.129-.997.95.402 1.4 1.14 1.415 2.117.018 1.107-.285 2.143-1.406 2.609-.71.293-1.506.406-2.277.513-.558.08-1.138.016-1.709.016-.182.85.124 1.352.937 1.308.865-.043 1.72-.245 2.646-.361M95.839 5.74l-1.02 1.445c.685 0 1.095.082 1.46-.02a5.31 5.31 0 0 0 1.458-.663c.088-.054-.053-.739-.157-.757a6.674 6.674 0 0 0-1.74-.005z" fill="#069FDD"/>
        <path d="M103.123 12.15c-.775.125-1.511.181-2.399.252.251-1.829.479-3.485.709-5.142.107-.773.217-1.546.332-2.32.118-.81.547-1.353 1.411-1.371 1.265-.027 2.552-.117 3.796.034 1.458.181 2.299 1.139 2.231 2.606-.087 1.88-.377 3.76-.623 5.633a.729.729 0 0 1-.496.488c-.618.061-1.247.021-1.989.021.24-1.689.447-3.228.682-4.762.242-1.588-.201-2.078-1.807-2.123-.713-.02-.937.267-1.019.903a190.79 190.79 0 0 1-.828 5.782z" fill="#079FDD"/>
        <path d="M90.815 8.662c-.128.903-.241 1.745-.374 2.576-.11.681-.556 1.119-1.216 1.153-1.295.067-2.607.14-3.893.01-1.488-.147-2.275-1.02-2.188-2.494.119-1.944.44-3.877.71-5.809a.722.722 0 0 1 .488-.473c.594-.062 1.198-.024 1.933-.024-.157 1.229-.297 2.35-.445 3.466-.071.542-.155 1.071-.232 1.606-.202 1.41.23 1.886 1.678 1.832.271-.011.547-.056.891-.094.268-1.894.523-3.794.819-5.68.058-.383.204-1.012.42-1.06.599-.138 1.257-.05 1.89 0 .067 0 .182.36.151.541-.188 1.458-.412 2.914-.632 4.45z" fill="#07A0DD"/>
        <path d="M65.45 12.103c-.326-.245-.835-.522-.8-.675.146-.517.379-1.006.689-1.446.047-.074.434.058.662.103.71.136 1.418.361 2.131.376.328 0 .67-.361 1.005-.57-.21-.29-.365-.666-.64-.854-.473-.318-1.05-.477-1.54-.773-.94-.567-1.55-1.339-1.361-2.53.19-1.19.871-2.028 2.115-2.142 1.18-.109 2.392.072 3.582.193.48.049.788.389.476.904-.248.406-.062 1.264-1.057.955a6.356 6.356 0 0 0-1.878-.25c-.259 0-.667.268-.73.496-.056.18.232.584.466.723.512.316 1.103.5 1.64.791 1.207.665 1.641 1.541 1.459 2.835a2.45 2.45 0 0 1-.762 1.463 2.49 2.49 0 0 1-1.524.658c-1.278.088-2.582-.14-3.933-.257z" fill="#F89A2E"/>
        <path d="M126.69 6.248c.078-1.678.791-2.567 2.505-2.728 1.083-.101 2.208.172 3.307.322.536.072.607.471.365.872-.243.401-.044 1.213-.981.958a7.328 7.328 0 0 0-1.871-.282c-.28 0-.561.33-.842.511.182.251.295.59.534.736.538.33 1.145.542 1.707.843 1.094.58 1.504 1.518 1.343 2.71-.149 1.119-.86 1.76-1.89 2.08-1.475.457-2.93.294-4.376-.192-.766-.256-.935-.663-.507-1.342.158-.28.302-.568.43-.862.568.18 1.094.383 1.641.499.442.108.9.133 1.351.076.305-.05.73-.304.799-.542.06-.215-.239-.642-.49-.804-.527-.344-1.149-.542-1.696-.859-.728-.428-1.289-1.004-1.329-1.996zM113.71 9.256c-.12 1.232-.095 1.245 2.132 1.084.092.509.153 1.022.182 1.538a.645.645 0 0 1-.447.439c-1.081.061-2.177.18-3.243.056-.899-.103-1.313-.961-1.178-2.036.202-1.603.432-3.205.658-4.868l-1.216-.09c-.182-1.207-.082-1.342.981-1.682.244-.08.609-.33.614-.511.048-1.614 1.222-1.845 2.626-2.094-.104.84-.199 1.626-.305 2.491h2.044l-.182 1.747c-.14.037-.282.064-.425.082-1.77.06-1.77.057-1.982 1.806-.075.652-.16 1.308-.259 2.038z" fill="#079FDD"/>
        <path d="M61.076 7.696c.146-1.12.313-2.157.414-3.2.069-.722.392-.995 1.113-.903.481.03.963.033 1.444.01-.233 1.69-.44 3.228-.658 4.764-.151 1.067-.364 2.13-.457 3.203-.055.627-.294.847-.903.8-.477-.038-.959 0-1.604 0 .222-1.604.432-3.1.65-4.674z" fill="#F89B2E"/>
        <path d="M4.2 5.043c.938 0 1.787-.036 2.63.028a.792.792 0 0 1 .523.565c0 1.424-.385 1.76-1.852 1.76-1.423 0-2.845.03-4.265-.018-.421-.017-1.112.38-1.22-.461-.12-.943.4-1.72 1.19-1.86.182-.02.365-.024.548-.014H4.2z" fill="#08A0DD"/>
        <path d="M3.134.732c.449-.215.848-.479 1.264-.506C5.39.16 6.39.226 7.386.197c.532-.01.755.114.682.723-.162 1.359-.458 1.675-1.81 1.682-.847 0-1.694-.036-2.537.014-.842.051-1.108-.27-.842-1.055.084-.254.137-.518.255-.829z" fill="#12A4DE"/>
        <path d="M6.57 11.305c-.183.722-.602.988-1.277.977-1.264-.02-2.525 0-3.776 0-.208-1.807.272-2.349 1.978-2.349h1.913c1.387-.01 1.387-.01 1.161 1.372z" fill="#089FDD"/>
        <path d="M64.225.297c.526.707.468 1.354-.059 1.937-.496.542-1.141.734-1.807.362-.583-.324-.683-.924-.468-1.505.264-.71.813-1.124 1.604-1.084.234.003.45.157.73.29z" fill="#F89B2F"/>
        <path d="M33 10.092c-.912.204-1.783.412-2.396-.439-.483-.672-.279-2.44.325-3.264.603-.824 1.482-1.032 2.975-.617-.273 1.413-.55 2.859-.904 4.32zM13.835 2.517c1.555.011 2.045.362 2.045 1.395 0 1.175-.73 1.84-2.062 1.856h-1.99l.46-3.252 1.546.001z" fill="#F7FCFD"/>
        <path d="M122.289 9.62c-.046.572-.217.988-.801.917-.656-.081-1.44-.074-1.916-.433-.569-.428.02-1.48.912-1.606.587-.085 1.198-.017 1.892-.017-.033.37-.055.716-.087 1.139z" fill="#F6FBFC"/>
        <path d="M23.528 10.467a10.08 10.08 0 0 1-1.416.126c-.547-.018-1.05-.18-1.094-.83-.044-.648.304-1.116.948-1.219.643-.103 1.309-.083 2.144-.126-.193.755-.35 1.391-.582 2.049z" fill="#F5FBFC"/>
        <path d="M43.163 7.056c-.16.827-.235 1.626-.518 2.328-.347.873-1.127 1.234-1.889 1.025-.842-.231-1.003-.936-.953-1.64a7.75 7.75 0 0 1 .422-2.096c.292-.804.925-1.247 1.846-1.131.86.108.984.766 1.092 1.514z" fill="#F8FCFD"/>
        <path d="M95.9 5.705a7.995 7.995 0 0 1 1.677.047c.104.018.244.703.157.757-.45.294-.942.517-1.459.663-.365.102-.775.02-1.459.02.42-.59.72-1.02 1.083-1.487z" fill="#F2FAFC"/>
    </g>
    <defs>
        <clipPath id="udk6eg1vra">
            <path fill="#fff" d="M0 0h133v16H0z"/>
        </clipPath>
    </defs>
</svg>
