<svg width="93" height="20" viewBox="0 0 93 20" fill="none" xmlns="http://www.w3.org/2000/svg">
    <g clip-path="url(#6wwe07kq8a)">
        <path d="M64.684 8.654c.206-1.82 1.644-3.414 3.456-3.863 1.837-.454 3.638-.366 5.4.32.541.212 1.051.474 1.421.945.237.295.363.66.358 1.033 0 2.782.02 5.563-.009 8.345-.015 1.457-.69 2.59-1.99 3.35-.875.513-1.848.697-2.854.791a10.336 10.336 0 0 1-3.245-.221c-.515-.116-1-.308-1.395-.683-.483-.46-.609-1.026-.482-1.633.066-.319.254-.615.403-.914.113-.228.283-.243.52-.133.984.461 2.02.775 3.126.698.497-.038.986-.14 1.455-.305.574-.2.868-.646.861-1.255v-.51c-.303.066-.57.142-.842.18-1.285.183-2.554.184-3.768-.361a3.853 3.853 0 0 1-1.759-1.571c-.715-1.196-.837-2.5-.695-3.849.012-.114.023-.228.042-.364m5.879 3.474c.303-.087.611-.16.906-.268.081-.03.17-.168.171-.257.012-1.24.012-2.48 0-3.718a.362.362 0 0 0-.189-.266 2.329 2.329 0 0 0-1.778-.037c-.49.184-.921.459-1.089 1.021a4.518 4.518 0 0 0-.119 2.06c.134.825.633 1.285 1.45 1.442.192.034.397.015.647.023zM31.34 13.027c-.484.848-1.131 1.51-1.993 1.973-.696.372-1.445.549-2.23.645-.816.098-1.607-.011-2.43-.205-.007.133-.018.235-.018.337v3.137c0 .133.014.26-.18.301-.853.18-1.714.24-2.57.053-.84-.184-1.04-.65-1.073-1.42-.036-.858-.008-1.719-.008-2.578 0-2.702.003-5.404-.003-8.105 0-.707.302-1.24.89-1.632.767-.51 1.642-.771 2.545-.884.765-.1 1.539-.135 2.31-.106 1.288.053 2.517.342 3.57 1.133a4.306 4.306 0 0 1 1.655 2.549c.309 1.358.305 2.718-.145 4.056-.084.25-.207.489-.32.751M27.01 7.634c-.698-.279-1.397-.253-2.098-.007-.196.069-.307.17-.305.405.011 1.38.011 2.76 0 4.141 0 .204.085.301.266.372a2.69 2.69 0 0 0 1.34.16c.777-.099 1.351-.488 1.635-1.223.283-.735.328-1.499.194-2.268-.109-.648-.353-1.229-1.032-1.58zM50.393 13.262c-.978 1.52-2.403 2.24-4.195 2.386-.706.058-1.416.001-2.103-.166a1.715 1.715 0 0 0-.211-.022c-.007.118-.017.222-.017.326v3.109c0 .14.021.28-.187.323-.845.177-1.7.234-2.542.053-.844-.181-1.073-.63-1.091-1.462-.03-1.372-.008-2.746-.008-4.119 0-2.17.006-4.34-.004-6.51-.002-.729.31-1.272.922-1.67.766-.497 1.627-.756 2.523-.865a14.175 14.175 0 0 1 2.31-.107c1.288.053 2.522.343 3.568 1.14.93.706 1.477 1.64 1.692 2.76.254 1.322.244 2.636-.222 3.92-.11.306-.281.592-.434.904m-5.984-.612c.325.02.65.067.975.057.702-.022 1.417-.559 1.657-1.199a4.327 4.327 0 0 0 .202-2.293c-.11-.628-.328-1.22-.949-1.53-.758-.377-1.547-.33-2.31.013-.092.042-.163.225-.163.342a237.334 237.334 0 0 0-.006 3.848c.002.576-.141.525.594.762zM78.75 14.267c-.97-.952-1.448-2.092-1.582-3.398a6.791 6.791 0 0 1 .164-2.417c.418-1.624 1.39-2.821 2.992-3.45 1.837-.721 3.7-.706 5.505.12 1.587.726 2.5 1.993 2.823 3.648.273 1.393.184 2.773-.451 4.07-.594 1.215-1.579 2.033-2.88 2.484-1.047.362-2.125.425-3.227.322-1.046-.1-2.008-.402-2.863-1.004-.161-.114-.312-.241-.482-.375m3.81-1.542c.84.178 1.592-.147 1.952-.893.509-1.052.502-2.148.11-3.222-.376-1.032-1.222-1.34-2.201-1.102-.739.179-1.068.765-1.245 1.418a4.64 4.64 0 0 0-.036 2.208c.164.747.462 1.43 1.421 1.593v-.002zM62.175 14.561c-.692.545-1.489.812-2.33.954-1.527.257-3.059.292-4.57-.1-1.053-.273-1.983-.774-2.446-1.788-.506-1.109-.5-2.245.178-3.3.529-.825 1.404-1.164 2.335-1.321.919-.156 1.853-.227 2.78-.336.27-.032.539-.077.81-.1.158-.014.234-.106.185-.224-.091-.222-.17-.51-.35-.622a2.91 2.91 0 0 0-1.032-.368c-1.062-.175-2.097.02-3.118.305-.06.017-.122.035-.181.058-.524.206-.76.217-1.087-.463-.292-.609-.319-1.252.168-1.794.344-.383.836-.558 1.339-.668a11.678 11.678 0 0 1 4.142-.17c.885.123 1.722.366 2.448.895.775.565 1.288 1.324 1.326 2.255.075 1.874.058 3.752.068 5.628 0 .49-.287.844-.666 1.159m-4.467-3.418c-.335.074-.675.126-1 .228-.325.102-.53.344-.517.677a.84.84 0 0 0 .614.8c.728.23 1.454.14 2.167-.085a.233.233 0 0 0 .143-.164c.01-.51.006-1.022.006-1.556-.48.031-.923.06-1.413.1zM11.04 7.494c-.388.106-.759.199-1.12.32-.212.07-.36.022-.512-.123a1.62 1.62 0 0 1-.442-.714 1.583 1.583 0 0 1-.02-.834c.067-.275.207-.527.406-.734.2-.206.45-.358.728-.441.632-.2 1.306-.302 1.969-.38a11.664 11.664 0 0 1 1.798-.053c1.09.041 2.153.227 3.095.81.922.571 1.495 1.386 1.586 2.446.078.897.055 1.803.065 2.705.01.886-.024 1.774.011 2.659.028.691-.313 1.16-.847 1.537-.756.531-1.629.789-2.54.886-.767.089-1.54.124-2.312.106-1.19-.037-2.36-.227-3.357-.933-.698-.494-1.124-1.155-1.245-2.006-.089-.628-.075-1.251.164-1.828.317-.772.896-1.333 1.708-1.649.684-.266 1.402-.356 2.125-.432.776-.082 1.55-.18 2.326-.251.28-.026.274-.174.231-.364-.096-.453-.446-.649-.854-.764-.868-.243-1.745-.177-2.62-.03-.109.018-.212.045-.341.072m1.94 3.716c-.157.043-.321.068-.468.131-.43.183-.57.39-.547.757.023.368.239.635.647.76.703.215 1.396.114 2.086-.078.186-.053.238-.155.235-.328-.008-.389 0-.778-.004-1.167a2.241 2.241 0 0 0-.035-.261c-.647.053-1.26.11-1.915.181l.001.005zM0 8.14c.03-.447.013-.88.102-1.29.153-.712.697-1.139 1.32-1.47.95-.507 1.979-.722 3.052-.812.678-.056 1.341-.053 2 .111.9.227 1.378.957 1.194 1.851-.054.275-.148.543-.232.812-.045.144-.132.197-.307.171a6.08 6.08 0 0 0-2.67.187c-.611.189-.63.213-.63.83 0 2.153-.005 4.307.006 6.46 0 .263-.08.378-.35.417-.831.118-1.66.22-2.485-.026-.605-.179-.937-.594-.945-1.21C.034 12.168.019 10.168 0 8.14zM37.685 10.107c0 1.648-.004 3.268.005 4.888 0 .243-.054.366-.328.407-.848.126-1.687.203-2.537-.022a1.213 1.213 0 0 1-.909-1.157c-.026-3-.04-6-.06-9 0-.167.054-.249.239-.283.828-.151 1.655-.235 2.487-.053.727.16 1.098.614 1.101 1.34.006 1.285.002 2.57.002 3.88z" fill="#221551"/>
        <path d="M85.818 16.544a6.405 6.405 0 0 0 1.927-.883 4.434 4.434 0 0 0 1.455-1.624c.244-.47.41-.978.613-1.469.073-.176.201-.265.404-.217l2.444.574c.284.067.39.207.314.479a9.15 9.15 0 0 1-1.487 3.073c-.875 1.17-2.01 2.032-3.36 2.63-.806.358-1.648.624-2.529.726-.67.079-1.345.11-2.018.164-.249.02-.337-.089-.335-.327.009-.833.009-1.666 0-2.499 0-.226.089-.31.322-.315a8.801 8.801 0 0 0 2.25-.312z" fill="#E0004D"/>
        <path d="M37.576 3.033c-.449.702-1.14.92-1.905.892-.805-.029-1.465-.367-1.797-1.126-.585-1.338.3-2.814 1.81-2.799.613.006 1.144.122 1.62.55.648.581.742 1.764.272 2.483z" fill="#221551"/>
    </g>
    <defs>
        <clipPath id="6wwe07kq8a">
            <path fill="#fff" d="M0 0h93v20H0z"/>
        </clipPath>
    </defs>
</svg>
