<?xml version="1.0" encoding="utf-8"?>
<!-- Generator: Adobe Illustrator 23.0.4, SVG Export Plug-In . SVG Version: 6.00 Build 0)  -->
<svg version="1.1" id="Capa_1" xmlns="http://www.w3.org/2000/svg" xmlns:xlink="http://www.w3.org/1999/xlink" x="0px" y="0px"
	 viewBox="0 0 52.5 17" style="enable-background:new 0 0 52.5 17;" xml:space="preserve">
<style type="text/css">
	.st0{fill:#1434CB;}
</style>
<g>
	<g>
		<path class="st0" d="M19.9,0.3l-6.9,16.4H8.6L5.2,3.6C5,2.8,4.8,2.5,4.2,2.2C3.2,1.6,1.5,1.1,0,0.8l0.1-0.5h7.2
			c0.9,0,1.7,0.6,2,1.7l1.8,9.5l4.4-11.2L19.9,0.3C19.9,0.3,19.9,0.3,19.9,0.3z M37.5,11.3c0-4.3-6-4.6-5.9-6.5
			c0-0.6,0.6-1.2,1.8-1.4c0.6-0.1,2.3-0.1,4.2,0.7l0.7-3.5C37,0.3,35.7,0,34.3,0c-4.2,0-7.1,2.2-7.2,5.4c0,2.4,2.1,3.7,3.7,4.5
			c1.7,0.8,2.2,1.3,2.2,2c0,1.1-1.3,1.6-2.5,1.6c-2.1,0-3.4-0.6-4.4-1l-0.8,3.6c1,0.5,2.8,0.9,4.7,0.9C34.6,17,37.5,14.8,37.5,11.3
			L37.5,11.3L37.5,11.3z M48.6,16.7h3.9L49.1,0.3h-3.6c-0.8,0-1.5,0.5-1.8,1.2l-6.4,15.2h4.5l0.9-2.5h5.4L48.6,16.7
			C48.6,16.7,48.6,16.7,48.6,16.7z M43.8,10.9l2.2-6.2l1.3,6.2H43.8z M26,0.3l-3.5,16.4h-4.2l3.5-16.4C21.8,0.3,26,0.3,26,0.3z"/>
	</g>
</g>
</svg>
